<mxfile host="app.diagrams.net" modified="2023-08-23T06:28:59.519Z" agent="Mozilla/5.0 (X11; Ubuntu; Linux x86_64; rv:105.0) Gecko/20100101 Firefox/105.0" etag="Nd0E0T7HyPO-dxgEM3qR" version="21.6.8" type="device">
  <diagram name="Page-1" id="aGrNsAUD6rLRG3-fpc4p">
    <mxGraphModel dx="1367" dy="795" grid="1" gridSize="10" guides="1" tooltips="1" connect="1" arrows="1" fold="1" page="1" pageScale="1" pageWidth="850" pageHeight="1100" math="0" shadow="0">
      <root>
        <mxCell id="0" />
        <mxCell id="1" parent="0" />
        <mxCell id="NWq0OS3p3h1v5JPfkNMX-2" value="" style="rounded=0;whiteSpace=wrap;html=1;fillColor=none;strokeWidth=2;" parent="1" vertex="1">
          <mxGeometry x="7" y="30" width="793" height="690" as="geometry" />
        </mxCell>
        <mxCell id="Dw3qF6tHwgRVVZFkppPR-285" value="&lt;font style=&quot;font-size: 36px;&quot;&gt;Before:&lt;/font&gt;" style="text;html=1;strokeColor=none;fillColor=none;align=center;verticalAlign=middle;whiteSpace=wrap;rounded=0;" parent="1" vertex="1">
          <mxGeometry x="40" y="41" width="60" height="30" as="geometry" />
        </mxCell>
        <mxCell id="Dw3qF6tHwgRVVZFkppPR-287" value="&lt;font style=&quot;font-size: 36px;&quot;&gt;After:&lt;/font&gt;" style="text;html=1;strokeColor=none;fillColor=none;align=center;verticalAlign=middle;whiteSpace=wrap;rounded=0;" parent="1" vertex="1">
          <mxGeometry x="27" y="375.5" width="60" height="30" as="geometry" />
        </mxCell>
        <mxCell id="Dw3qF6tHwgRVVZFkppPR-300" value="" style="rounded=0;whiteSpace=wrap;html=1;strokeWidth=3;fillColor=#e1d5e7;strokeColor=default;" parent="1" vertex="1">
          <mxGeometry x="57" y="439" width="180" height="60" as="geometry" />
        </mxCell>
        <mxCell id="Dw3qF6tHwgRVVZFkppPR-302" value="&lt;div&gt;&lt;font style=&quot;font-size: 18px;&quot;&gt;Allocated mem chunk&lt;/font&gt;&lt;/div&gt;" style="text;html=1;strokeColor=none;fillColor=none;align=center;verticalAlign=middle;whiteSpace=wrap;rounded=0;" parent="1" vertex="1">
          <mxGeometry x="42" y="441" width="210" height="30" as="geometry" />
        </mxCell>
        <mxCell id="Dw3qF6tHwgRVVZFkppPR-304" value="&lt;font style=&quot;font-size: 18px;&quot;&gt;Size=32 bytes&lt;br&gt;&lt;/font&gt;" style="text;html=1;strokeColor=none;fillColor=none;align=center;verticalAlign=middle;whiteSpace=wrap;rounded=0;" parent="1" vertex="1">
          <mxGeometry x="79" y="469" width="128" height="30" as="geometry" />
        </mxCell>
        <mxCell id="Dw3qF6tHwgRVVZFkppPR-318" value="" style="rounded=0;whiteSpace=wrap;html=1;strokeWidth=3;fillColor=#ffe6cc;strokeColor=default;" parent="1" vertex="1">
          <mxGeometry x="237" y="439" width="363" height="60" as="geometry" />
        </mxCell>
        <mxCell id="Dw3qF6tHwgRVVZFkppPR-319" value="&lt;font style=&quot;font-size: 18px;&quot;&gt;Size=64 bytes&lt;br&gt;&lt;/font&gt;" style="text;html=1;strokeColor=none;fillColor=none;align=center;verticalAlign=middle;whiteSpace=wrap;rounded=0;" parent="1" vertex="1">
          <mxGeometry x="370" y="469" width="124" height="30" as="geometry" />
        </mxCell>
        <mxCell id="Dw3qF6tHwgRVVZFkppPR-320" value="&lt;font style=&quot;font-size: 18px;&quot;&gt;Free mem chunk&lt;/font&gt;&lt;font style=&quot;font-size: 18px;&quot;&gt; &#39;f&#39;&lt;/font&gt;" style="text;html=1;strokeColor=none;fillColor=none;align=center;verticalAlign=middle;whiteSpace=wrap;rounded=0;" parent="1" vertex="1">
          <mxGeometry x="320" y="445" width="209.5" height="26" as="geometry" />
        </mxCell>
        <mxCell id="Dw3qF6tHwgRVVZFkppPR-330" value="" style="rounded=0;whiteSpace=wrap;html=1;strokeWidth=3;fillColor=#e1d5e7;strokeColor=default;" parent="1" vertex="1">
          <mxGeometry x="54" y="117" width="180" height="60" as="geometry" />
        </mxCell>
        <mxCell id="Dw3qF6tHwgRVVZFkppPR-331" value="&lt;div&gt;&lt;font style=&quot;font-size: 18px;&quot;&gt;Allocated mem chunk&lt;/font&gt;&lt;/div&gt;" style="text;html=1;strokeColor=none;fillColor=none;align=center;verticalAlign=middle;whiteSpace=wrap;rounded=0;" parent="1" vertex="1">
          <mxGeometry x="39" y="119" width="210" height="30" as="geometry" />
        </mxCell>
        <mxCell id="Dw3qF6tHwgRVVZFkppPR-332" value="&lt;font style=&quot;font-size: 18px;&quot;&gt;&lt;font style=&quot;font-size: 18px;&quot;&gt;Size=32 bytes&lt;br&gt;&lt;/font&gt;&lt;/font&gt;" style="text;html=1;strokeColor=none;fillColor=none;align=center;verticalAlign=middle;whiteSpace=wrap;rounded=0;" parent="1" vertex="1">
          <mxGeometry x="60" y="147" width="170" height="30" as="geometry" />
        </mxCell>
        <mxCell id="Dw3qF6tHwgRVVZFkppPR-344" value="" style="rounded=0;whiteSpace=wrap;html=1;strokeWidth=3;fillColor=#e1d5e7;" parent="1" vertex="1">
          <mxGeometry x="234" y="117" width="180" height="60" as="geometry" />
        </mxCell>
        <mxCell id="Dw3qF6tHwgRVVZFkppPR-346" value="&lt;font style=&quot;font-size: 18px;&quot;&gt;Allocated mem chunk&lt;/font&gt;" style="text;html=1;strokeColor=none;fillColor=none;align=center;verticalAlign=middle;whiteSpace=wrap;rounded=0;" parent="1" vertex="1">
          <mxGeometry x="217.5" y="121" width="209.5" height="26" as="geometry" />
        </mxCell>
        <mxCell id="Dw3qF6tHwgRVVZFkppPR-347" value="" style="rounded=0;whiteSpace=wrap;html=1;strokeWidth=3;fillColor=#ffe6cc;strokeColor=default;" parent="1" vertex="1">
          <mxGeometry x="415" y="117" width="185" height="60" as="geometry" />
        </mxCell>
        <mxCell id="Dw3qF6tHwgRVVZFkppPR-350" value="&lt;font style=&quot;font-size: 18px;&quot;&gt;Free mem chunk &#39;m2&#39;&lt;br&gt;&lt;/font&gt;" style="text;html=1;strokeColor=none;fillColor=none;align=center;verticalAlign=middle;whiteSpace=wrap;rounded=0;" parent="1" vertex="1">
          <mxGeometry x="402.75" y="119" width="209.5" height="26" as="geometry" />
        </mxCell>
        <mxCell id="Dw3qF6tHwgRVVZFkppPR-353" value="&lt;font style=&quot;font-size: 24px;&quot;&gt;memfree(ptr)&lt;/font&gt;" style="text;html=1;strokeColor=none;fillColor=none;align=center;verticalAlign=middle;whiteSpace=wrap;rounded=0;" parent="1" vertex="1">
          <mxGeometry x="297" y="50" width="60" height="30" as="geometry" />
        </mxCell>
        <mxCell id="Dw3qF6tHwgRVVZFkppPR-354" value="" style="endArrow=classic;html=1;rounded=0;strokeWidth=3;" parent="1" edge="1">
          <mxGeometry width="50" height="50" relative="1" as="geometry">
            <mxPoint x="320" y="80" as="sourcePoint" />
            <mxPoint x="320" y="116" as="targetPoint" />
          </mxGeometry>
        </mxCell>
        <mxCell id="OtuHEoPXtZiCcEz_uXgd-1" value="&lt;div&gt;&lt;font style=&quot;font-size: 18px;&quot;&gt;h&lt;/font&gt;&lt;/div&gt;&lt;div&gt;&lt;font size=&quot;3&quot;&gt;e&lt;/font&gt;&lt;/div&gt;&lt;div&gt;&lt;font size=&quot;3&quot;&gt;a&lt;/font&gt;&lt;/div&gt;&lt;div&gt;&lt;font size=&quot;3&quot;&gt;d&lt;br&gt;&lt;/font&gt;&lt;/div&gt;" style="rounded=0;whiteSpace=wrap;html=1;strokeWidth=2;fillColor=#d5e8d4;strokeColor=default;" parent="1" vertex="1">
          <mxGeometry x="52" y="247" width="30" height="80" as="geometry" />
        </mxCell>
        <mxCell id="OtuHEoPXtZiCcEz_uXgd-2" value="" style="endArrow=classic;html=1;rounded=0;exitX=1;exitY=0.5;exitDx=0;exitDy=0;strokeWidth=2;" parent="1" edge="1">
          <mxGeometry width="50" height="50" relative="1" as="geometry">
            <mxPoint x="82" y="278" as="sourcePoint" />
            <mxPoint x="160" y="278" as="targetPoint" />
          </mxGeometry>
        </mxCell>
        <mxCell id="OtuHEoPXtZiCcEz_uXgd-3" value="&lt;div&gt;&lt;font style=&quot;font-size: 18px;&quot;&gt;Free mem chunk &lt;br&gt;&lt;/font&gt;&lt;/div&gt;&lt;div&gt;&lt;font style=&quot;font-size: 18px;&quot;&gt;&#39;m1&#39;&lt;/font&gt;&lt;/div&gt;" style="rounded=0;whiteSpace=wrap;html=1;strokeWidth=3;fillColor=#ffe6cc;strokeColor=default;" parent="1" vertex="1">
          <mxGeometry x="160" y="262" width="140" height="50" as="geometry" />
        </mxCell>
        <mxCell id="OtuHEoPXtZiCcEz_uXgd-5" value="" style="endArrow=classic;html=1;rounded=0;exitX=1;exitY=0.5;exitDx=0;exitDy=0;strokeWidth=2;" parent="1" edge="1">
          <mxGeometry width="50" height="50" relative="1" as="geometry">
            <mxPoint x="160" y="297" as="sourcePoint" />
            <mxPoint x="82" y="297" as="targetPoint" />
          </mxGeometry>
        </mxCell>
        <mxCell id="OtuHEoPXtZiCcEz_uXgd-6" value="" style="endArrow=classic;html=1;rounded=0;exitX=1;exitY=0.5;exitDx=0;exitDy=0;strokeWidth=2;" parent="1" edge="1">
          <mxGeometry width="50" height="50" relative="1" as="geometry">
            <mxPoint x="301.25" y="277" as="sourcePoint" />
            <mxPoint x="379.25" y="277" as="targetPoint" />
          </mxGeometry>
        </mxCell>
        <mxCell id="OtuHEoPXtZiCcEz_uXgd-7" value="" style="endArrow=classic;html=1;rounded=0;exitX=1;exitY=0.5;exitDx=0;exitDy=0;strokeWidth=2;" parent="1" edge="1">
          <mxGeometry width="50" height="50" relative="1" as="geometry">
            <mxPoint x="379.25" y="296" as="sourcePoint" />
            <mxPoint x="301.25" y="296" as="targetPoint" />
          </mxGeometry>
        </mxCell>
        <mxCell id="OtuHEoPXtZiCcEz_uXgd-8" value="" style="endArrow=none;dashed=1;html=1;dashPattern=1 3;strokeWidth=2;rounded=0;" parent="1" edge="1">
          <mxGeometry width="50" height="50" relative="1" as="geometry">
            <mxPoint x="755.25" y="633" as="sourcePoint" />
            <mxPoint x="795" y="633" as="targetPoint" />
          </mxGeometry>
        </mxCell>
        <mxCell id="OtuHEoPXtZiCcEz_uXgd-9" value="&lt;font style=&quot;font-size: 24px;&quot;&gt;(a) Freeing an allocated memory chunk&lt;/font&gt;" style="text;html=1;strokeColor=none;fillColor=none;align=center;verticalAlign=middle;whiteSpace=wrap;rounded=0;" parent="1" vertex="1">
          <mxGeometry x="101.5" y="190" width="451" height="30" as="geometry" />
        </mxCell>
        <mxCell id="OtuHEoPXtZiCcEz_uXgd-11" value="&lt;font style=&quot;font-size: 18px;&quot;&gt;&lt;font style=&quot;font-size: 18px;&quot;&gt;Size=32 bytes&lt;br&gt;&lt;/font&gt;&lt;/font&gt;" style="text;html=1;strokeColor=none;fillColor=none;align=center;verticalAlign=middle;whiteSpace=wrap;rounded=0;" parent="1" vertex="1">
          <mxGeometry x="242" y="145" width="170" height="30" as="geometry" />
        </mxCell>
        <mxCell id="OtuHEoPXtZiCcEz_uXgd-12" value="&lt;font style=&quot;font-size: 18px;&quot;&gt;&lt;font style=&quot;font-size: 18px;&quot;&gt;Size=32 bytes&lt;br&gt;&lt;/font&gt;&lt;/font&gt;" style="text;html=1;strokeColor=none;fillColor=none;align=center;verticalAlign=middle;whiteSpace=wrap;rounded=0;" parent="1" vertex="1">
          <mxGeometry x="435" y="145" width="145" height="30" as="geometry" />
        </mxCell>
        <mxCell id="OtuHEoPXtZiCcEz_uXgd-13" value="&lt;div&gt;&lt;font style=&quot;font-size: 18px;&quot;&gt;h&lt;/font&gt;&lt;/div&gt;&lt;div&gt;&lt;font size=&quot;3&quot;&gt;e&lt;/font&gt;&lt;/div&gt;&lt;div&gt;&lt;font size=&quot;3&quot;&gt;a&lt;/font&gt;&lt;/div&gt;&lt;div&gt;&lt;font size=&quot;3&quot;&gt;d&lt;br&gt;&lt;/font&gt;&lt;/div&gt;" style="rounded=0;whiteSpace=wrap;html=1;strokeWidth=2;fillColor=#d5e8d4;strokeColor=default;" parent="1" vertex="1">
          <mxGeometry x="57" y="594" width="30" height="80" as="geometry" />
        </mxCell>
        <mxCell id="OtuHEoPXtZiCcEz_uXgd-14" value="" style="endArrow=classic;html=1;rounded=0;exitX=1;exitY=0.5;exitDx=0;exitDy=0;strokeWidth=2;" parent="1" edge="1">
          <mxGeometry width="50" height="50" relative="1" as="geometry">
            <mxPoint x="87" y="625" as="sourcePoint" />
            <mxPoint x="130" y="625" as="targetPoint" />
          </mxGeometry>
        </mxCell>
        <mxCell id="OtuHEoPXtZiCcEz_uXgd-17" value="" style="endArrow=classic;html=1;rounded=0;strokeWidth=2;" parent="1" edge="1">
          <mxGeometry width="50" height="50" relative="1" as="geometry">
            <mxPoint x="130" y="644" as="sourcePoint" />
            <mxPoint x="87" y="644" as="targetPoint" />
          </mxGeometry>
        </mxCell>
        <mxCell id="OtuHEoPXtZiCcEz_uXgd-21" value="&lt;div&gt;&lt;font style=&quot;font-size: 18px;&quot;&gt;Free mem chunk &lt;br&gt;&lt;/font&gt;&lt;/div&gt;&lt;div&gt;&lt;font style=&quot;font-size: 18px;&quot;&gt;&#39;m2&#39;&lt;/font&gt;&lt;/div&gt;" style="rounded=0;whiteSpace=wrap;html=1;strokeWidth=3;fillColor=#ffe6cc;strokeColor=default;" parent="1" vertex="1">
          <mxGeometry x="380" y="262" width="140" height="50" as="geometry" />
        </mxCell>
        <mxCell id="OtuHEoPXtZiCcEz_uXgd-22" value="&lt;div&gt;&lt;font style=&quot;font-size: 18px;&quot;&gt;Newly freed mem chunk &lt;br&gt;&lt;/font&gt;&lt;/div&gt;&lt;font style=&quot;font-size: 18px;&quot;&gt;&#39;f&#39;&lt;/font&gt;" style="rounded=0;whiteSpace=wrap;html=1;strokeWidth=3;fillColor=#ffe6cc;strokeColor=default;" parent="1" vertex="1">
          <mxGeometry x="130" y="609" width="210" height="50" as="geometry" />
        </mxCell>
        <mxCell id="OtuHEoPXtZiCcEz_uXgd-23" value="" style="endArrow=classic;html=1;rounded=0;strokeWidth=2;entryX=0.001;entryY=0.317;entryDx=0;entryDy=0;entryPerimeter=0;exitX=1.009;exitY=0.308;exitDx=0;exitDy=0;exitPerimeter=0;" parent="1" source="OtuHEoPXtZiCcEz_uXgd-22" target="OtuHEoPXtZiCcEz_uXgd-26" edge="1">
          <mxGeometry width="50" height="50" relative="1" as="geometry">
            <mxPoint x="350" y="625" as="sourcePoint" />
            <mxPoint x="374.25" y="624" as="targetPoint" />
          </mxGeometry>
        </mxCell>
        <mxCell id="OtuHEoPXtZiCcEz_uXgd-24" value="" style="endArrow=classic;html=1;rounded=0;exitX=0;exitY=0.75;exitDx=0;exitDy=0;strokeWidth=2;" parent="1" source="OtuHEoPXtZiCcEz_uXgd-26" edge="1">
          <mxGeometry width="50" height="50" relative="1" as="geometry">
            <mxPoint x="384.25" y="643" as="sourcePoint" />
            <mxPoint x="340" y="647" as="targetPoint" />
          </mxGeometry>
        </mxCell>
        <mxCell id="OtuHEoPXtZiCcEz_uXgd-26" value="&lt;div&gt;&lt;font style=&quot;font-size: 18px;&quot;&gt;Free mem chunk &lt;br&gt;&lt;/font&gt;&lt;/div&gt;&lt;div&gt;&lt;font style=&quot;font-size: 18px;&quot;&gt;&#39;m1&#39;&lt;/font&gt;&lt;/div&gt;" style="rounded=0;whiteSpace=wrap;html=1;strokeWidth=3;fillColor=#ffe6cc;strokeColor=default;" parent="1" vertex="1">
          <mxGeometry x="385" y="609" width="140" height="50" as="geometry" />
        </mxCell>
        <mxCell id="OtuHEoPXtZiCcEz_uXgd-27" value="" style="endArrow=classic;html=1;rounded=0;exitX=1;exitY=0.5;exitDx=0;exitDy=0;strokeWidth=2;" parent="1" edge="1">
          <mxGeometry width="50" height="50" relative="1" as="geometry">
            <mxPoint x="525" y="624" as="sourcePoint" />
            <mxPoint x="603" y="624" as="targetPoint" />
          </mxGeometry>
        </mxCell>
        <mxCell id="OtuHEoPXtZiCcEz_uXgd-28" value="" style="endArrow=classic;html=1;rounded=0;exitX=1;exitY=0.5;exitDx=0;exitDy=0;strokeWidth=2;" parent="1" edge="1">
          <mxGeometry width="50" height="50" relative="1" as="geometry">
            <mxPoint x="603" y="643" as="sourcePoint" />
            <mxPoint x="525" y="643" as="targetPoint" />
          </mxGeometry>
        </mxCell>
        <mxCell id="OtuHEoPXtZiCcEz_uXgd-29" value="&lt;div&gt;&lt;font style=&quot;font-size: 18px;&quot;&gt;Free mem chunk &lt;br&gt;&lt;/font&gt;&lt;/div&gt;&lt;div&gt;&lt;font style=&quot;font-size: 18px;&quot;&gt;&#39;m3&#39;&lt;/font&gt;&lt;/div&gt;" style="rounded=0;whiteSpace=wrap;html=1;strokeWidth=3;fillColor=#ffe6cc;strokeColor=default;" parent="1" vertex="1">
          <mxGeometry x="603.75" y="609" width="140" height="50" as="geometry" />
        </mxCell>
        <mxCell id="OtuHEoPXtZiCcEz_uXgd-32" value="" style="endArrow=classic;html=1;rounded=0;strokeWidth=3;entryX=0.5;entryY=0;entryDx=0;entryDy=0;exitX=0.25;exitY=1;exitDx=0;exitDy=0;dashed=1;dashPattern=1 1;" parent="1" source="Dw3qF6tHwgRVVZFkppPR-318" target="OtuHEoPXtZiCcEz_uXgd-22" edge="1">
          <mxGeometry width="50" height="50" relative="1" as="geometry">
            <mxPoint x="320" y="509" as="sourcePoint" />
            <mxPoint x="240" y="579" as="targetPoint" />
          </mxGeometry>
        </mxCell>
        <mxCell id="OtuHEoPXtZiCcEz_uXgd-37" value="&lt;font style=&quot;font-size: 24px;&quot;&gt;(b) State of the free list&lt;/font&gt;" style="text;html=1;strokeColor=none;fillColor=none;align=center;verticalAlign=middle;whiteSpace=wrap;rounded=0;" parent="1" vertex="1">
          <mxGeometry x="101.5" y="334" width="451" height="30" as="geometry" />
        </mxCell>
        <mxCell id="OtuHEoPXtZiCcEz_uXgd-38" value="&lt;div&gt;&lt;font style=&quot;font-size: 24px;&quot;&gt;(c) Freed an allocated &lt;br&gt;&lt;/font&gt;&lt;/div&gt;&lt;div&gt;&lt;font style=&quot;font-size: 24px;&quot;&gt;memory chunk&lt;/font&gt;&lt;/div&gt;" style="text;html=1;strokeColor=none;fillColor=none;align=center;verticalAlign=middle;whiteSpace=wrap;rounded=0;" parent="1" vertex="1">
          <mxGeometry x="320" y="519" width="245" height="30" as="geometry" />
        </mxCell>
        <mxCell id="OtuHEoPXtZiCcEz_uXgd-39" value="&lt;font style=&quot;font-size: 24px;&quot;&gt;(d) State of the free list&lt;/font&gt;" style="text;html=1;strokeColor=none;fillColor=none;align=center;verticalAlign=middle;whiteSpace=wrap;rounded=0;" parent="1" vertex="1">
          <mxGeometry x="101.5" y="680" width="451" height="30" as="geometry" />
        </mxCell>
        <mxCell id="OtuHEoPXtZiCcEz_uXgd-42" value="" style="endArrow=classic;html=1;rounded=0;exitX=1;exitY=0.5;exitDx=0;exitDy=0;strokeWidth=2;" parent="1" edge="1">
          <mxGeometry width="50" height="50" relative="1" as="geometry">
            <mxPoint x="520" y="277" as="sourcePoint" />
            <mxPoint x="598" y="277" as="targetPoint" />
          </mxGeometry>
        </mxCell>
        <mxCell id="OtuHEoPXtZiCcEz_uXgd-43" value="" style="endArrow=classic;html=1;rounded=0;exitX=1;exitY=0.5;exitDx=0;exitDy=0;strokeWidth=2;" parent="1" edge="1">
          <mxGeometry width="50" height="50" relative="1" as="geometry">
            <mxPoint x="598" y="296" as="sourcePoint" />
            <mxPoint x="520" y="296" as="targetPoint" />
          </mxGeometry>
        </mxCell>
        <mxCell id="OtuHEoPXtZiCcEz_uXgd-44" value="&lt;div&gt;&lt;font style=&quot;font-size: 18px;&quot;&gt;Free mem chunk &lt;br&gt;&lt;/font&gt;&lt;/div&gt;&lt;div&gt;&lt;font style=&quot;font-size: 18px;&quot;&gt;&#39;m3&#39;&lt;/font&gt;&lt;/div&gt;" style="rounded=0;whiteSpace=wrap;html=1;strokeWidth=3;fillColor=#ffe6cc;strokeColor=default;" parent="1" vertex="1">
          <mxGeometry x="598.75" y="262" width="140" height="50" as="geometry" />
        </mxCell>
        <mxCell id="OtuHEoPXtZiCcEz_uXgd-46" value="" style="endArrow=none;dashed=1;html=1;dashPattern=1 3;strokeWidth=2;rounded=0;" parent="1" edge="1">
          <mxGeometry width="50" height="50" relative="1" as="geometry">
            <mxPoint x="751.25" y="285" as="sourcePoint" />
            <mxPoint x="791" y="285" as="targetPoint" />
          </mxGeometry>
        </mxCell>
      </root>
    </mxGraphModel>
  </diagram>
</mxfile>
